<svg xmlns="http://www.w3.org/2000/svg" x="0px" y="0px" viewBox="0 0 100 125"><path style="" d="M 50,3.28125 C 24.197502,3.28125 3.28125,24.197502 3.28125,50 c 0,6.355995 1.2636483,12.41403 3.5625,17.9375 L 42.875,49.921875 C 41.690518,47.075935 41.03125,43.99371 41.03125,40.71875 41.03125,27.42404 51.830264,16.625 65.125,16.625 c 13.294737,0 24.0625,10.79904 24.0625,24.09375 0,3.27496 -0.659267,6.357185 -1.84375,9.203125 l -0.09375,0 5.9375,18.015625 C 95.476527,62.424062 96.71875,56.341689 96.71875,50 96.71875,24.197502 75.802498,3.28125 50,3.28125 z m 15.28125,46.640625 -0.03125,0 1,0 0.03125,0 z m 0.96875,0 -1.65625,2.234375 -1.3125,0 1.96875,-2.234375 -21.34375,0 -33.75,18.015625 39.28125,0 3.9375,-4.5 2.71875,0 -3.375,4.5 37.15625,0 -3.65625,-18.015625 z M 52.71875,67.9375 l -3.28125,0 -0.03125,0 3.28125,0 z m 8.59375,-13.5 1.59375,0 -3.40625,4.5 -2.15625,0 z" fill="#000000" fill-opacity="1" stroke="none"/></svg>